<?xml version="1.0" standalone="no"?>
<!DOCTYPE svg PUBLIC "-//W3C//DTD SVG 20010904//EN" "http://www.w3.org/TR/2001/REC-SVG-20010904/DTD/svg10.dtd">
<svg xmlns="http://www.w3.org/2000/svg" version="1.0" width="612.000000pt" height="408.000000pt" viewBox="0 0 612.000000 408.000000" preserveAspectRatio="xMidYMid meet">
<metadata>
Created by potrace 1.16, written by Peter Selinger 2001-2019
<meta name="Producer" content="Online-Convert"/></metadata>
<g transform="translate(0.000000,408.000000) scale(0.100000,-0.100000)" fill="#000000" stroke="none">
<path d="M1110 2769 c-25 -3 -49 -4 -54 -1 -5 3 -6 -1 -1 -8 6 -10 4 -12 -8 -7 -9 3 -17 2 -19 -3 -2 -5 -14 -11 -28 -13 -47 -9 -194 -104 -252 -164 -79 -81 -179 -254 -180 -310 0 -13 -4 -20 -8 -18 -5 3 -6 -5 -2 -17 3 -15 2 -19 -7 -14 -8 6 -10 1 -5 -18 3 -15 2 -26 -4 -26 -6 0 -8 -9 -5 -20 3 -11 2 -28 -2 -37 -9 -23 -9 -138 0 -153 4 -6 4 -27 0 -47 -5 -26 -3 -33 6 -27 9 5 11 1 7 -14 -4 -12 -2 -22 4 -22 6 0 8 -7 4 -15 -3 -8 -2 -15 2 -15 5 0 7 -13 6 -30 -1 -16 1 -28 5 -26 3 2 11 -7 18 -20 6 -13 7 -22 2 -19 -8 5 5 -23 26 -55 5 -8 10 -21 12 -29 1 -7 13 -26 27 -40 14 -15 26 -32 26 -39 0 -7 4 -12 8 -12 4 0 29 -25 55 -56 26 -31 47 -53 47 -49 0 4 17 -6 38 -22 78 -61 196 -116 245 -115 15 0 27 -3 27 -7 0 -4 14 -6 30 -3 17 2 30 0 30 -5 0 -6 34 -5 88 2 48 7 90 11 94 9 12 -7 168 65 225 105 98 67 201 192 244 296 45 109 58 147 52 162 -4 9 -2 14 3 11 9 -6 15 68 18 209 0 35 -2 64 -6 65 -3 2 -9 23 -11 48 -3 25 -10 56 -15 70 -5 14 -7 31 -4 39 3 8 0 11 -7 7 -6 -4 -11 -1 -11 7 0 20 -47 111 -83 162 -30 42 -145 166 -151 162 -6 -4 -136 75 -136 83 0 4 -8 7 -17 7 -42 0 -54 4 -47 14 4 8 0 9 -15 4 -11 -3 -21 -3 -21 2 0 7 -31 11 -155 17 -27 1 -70 -1 -95 -5z m170 -59 c0 -5 6 -7 13 -4 15 5 128 -22 136 -33 3 -5 15 -10 25 -11 31 -6 125 -70 181 -123 49 -46 137 -178 139 -209 1 -8 7 -25 14 -38 7 -12 10 -27 7 -32 -3 -6 -2 -10 4 -10 6 0 7 -7 4 -17 -4 -9 -2 -14 3 -10 10 6 15 -30 16 -110 0 -24 4 -40 9 -37 5 3 9 -14 9 -38 0 -27 -3 -38 -9 -30 -5 9 -9 -11 -9 -50 -2 -109 -4 -117 -24 -124 -15 -4 -16 -9 -8 -19 9 -10 8 -20 -2 -37 -7 -13 -13 -28 -13 -34 -1 -28 -70 -135 -123 -189 -76 -78 -128 -124 -118 -105 6 11 4 11 -6 -1 -12 -15 -72 -50 -83 -49 -3 0 -18 -6 -35 -15 -16 -8 -42 -16 -58 -18 -15 -2 -32 -6 -38 -10 -19 -12 -247 -2 -252 11 -2 7 -8 10 -13 6 -11 -7 -149 55 -149 67 0 5 -6 9 -14 9 -40 0 -236 228 -236 275 0 6 -7 27 -16 45 -21 41 -53 200 -54 262 0 90 37 244 82 335 34 68 61 104 125 169 91 91 169 136 288 165 77 19 205 25 205 9z"/>
<path d="M942 2564 c-23 -25 -40 -49 -37 -54 3 -4 -5 -17 -18 -27 -12 -10 -38 -43 -56 -73 -19 -30 -36 -57 -40 -60 -3 -3 -8 -16 -9 -30 -2 -14 -8 -26 -13 -28 -5 -2 -9 -8 -9 -13 0 -6 5 -7 10 -4 9 5 14 -16 13 -52 -1 -7 3 -10 8 -7 16 10 9 -11 -16 -47 -13 -20 -21 -39 -18 -43 4 -3 1 -6 -5 -6 -7 0 -11 -3 -11 -7 4 -22 -2 -44 -10 -39 -5 3 -8 -14 -7 -38 1 -24 -1 -43 -4 -41 -3 2 -5 -34 -6 -80 0 -46 3 -82 6 -80 4 2 6 -11 5 -30 0 -18 3 -32 6 -29 7 4 23 -33 21 -46 0 -3 7 -13 15 -22 9 -10 13 -18 9 -18 -18 0 93 -97 132 -115 23 -11 42 -22 42 -25 0 -3 34 -4 75 -3 83 3 95 8 218 87 98 63 117 71 110 48 -9 -31 -203 -169 -203 -145 0 5 -4 2 -9 -5 -4 -7 -36 -15 -72 -19 -73 -6 -91 -16 -59 -33 31 -16 136 -9 179 13 19 9 39 17 45 17 6 0 59 38 119 84 128 101 174 121 280 121 42 0 77 2 77 5 0 13 -43 41 -55 36 -8 -3 -15 0 -17 6 -3 7 -22 13 -44 14 -21 2 -63 7 -91 12 -29 5 -53 5 -53 1 0 -5 -9 -9 -20 -9 -10 0 -41 -7 -67 -16 -68 -22 -67 -21 -77 -22 -5 0 -12 -4 -15 -9 -15 -22 -197 -97 -212 -88 -5 4 -9 1 -9 -4 0 -6 -21 -11 -47 -11 -52 0 -133 32 -133 51 0 7 -3 9 -6 6 -14 -13 -88 108 -80 130 3 8 1 11 -4 8 -5 -3 -10 4 -10 17 0 13 0 63 0 112 -1 79 2 93 28 140 27 48 33 51 77 58 59 8 98 44 158 143 23 38 44 74 46 80 2 5 17 29 33 54 32 51 34 61 13 61 -8 0 -15 -6 -15 -13 0 -7 -19 -32 -42 -56 -24 -25 -36 -41 -28 -37 11 6 11 4 -1 -6 -9 -7 -16 -17 -17 -23 -1 -14 -22 -19 -22 -5 0 6 12 31 26 55 18 32 30 42 42 39 13 -5 14 -4 3 4 -10 7 -11 14 -1 31 15 30 8 49 -11 27 -7 -10 -25 -31 -39 -47 -14 -16 -30 -35 -37 -43 -6 -8 -9 -16 -7 -19 3 -3 -4 -10 -15 -17 -12 -6 -19 -15 -16 -19 3 -5 -4 -20 -15 -32 -16 -20 -19 -21 -20 -6 0 9 5 17 10 17 6 0 10 4 10 9 0 5 12 30 28 56 15 26 39 68 54 93 30 52 38 91 12 57 -8 -11 -20 -19 -25 -17 -9 2 -13 -13 -9 -33 1 -5 -2 -7 -6 -3 -7 8 -65 -52 -59 -62 2 -3 -7 -19 -20 -36 -13 -16 -24 -23 -25 -16 0 6 5 12 10 12 6 0 9 3 9 8 -3 17 2 32 16 46 22 21 85 145 77 150 -4 2 -26 -16 -50 -40z"/>
<path d="M1235 2408 c-10 -18 -14 -39 -11 -53 3 -13 1 -27 -5 -31 -8 -4 -7 -9 2 -15 11 -7 9 -9 -6 -9 -57 0 -190 -72 -218 -117 -5 -8 -14 -10 -20 -7 -7 4 -9 4 -5 0 4 -5 -7 -29 -23 -56 -16 -26 -29 -57 -29 -69 0 -12 -4 -20 -9 -16 -8 5 -4 -104 5 -113 1 -2 9 18 17 45 38 127 106 213 208 262 60 29 171 42 184 21 3 -5 18 -9 33 -9 35 3 105 -35 137 -73 31 -37 59 -88 48 -88 -5 0 0 -5 10 -11 20 -12 23 -31 3 -23 -7 3 -29 27 -47 54 -19 28 -53 60 -81 76 -26 16 -48 31 -48 35 0 8 -26 6 -35 -3 -3 -3 9 -19 27 -35 41 -37 78 -87 78 -108 0 -8 4 -15 8 -15 10 0 11 -2 18 -98 4 -40 2 -72 -2 -71 -5 1 -17 -1 -26 -5 -17 -8 -207 -4 -471 9 -133 6 -158 1 -156 -34 0 -11 3 -9 9 7 12 28 17 28 16 1 -1 -17 8 -24 39 -33 22 -7 46 -11 53 -8 6 2 12 -1 12 -8 0 -6 4 -9 9 -6 5 3 44 2 87 -4 107 -13 276 -18 261 -8 -7 5 20 8 61 6 39 -2 73 1 75 5 1 5 57 10 123 11 67 2 126 6 133 10 6 4 11 3 11 -3 0 -7 9 -7 29 0 23 8 27 15 23 34 -4 21 -10 25 -41 25 -23 0 -31 3 -23 9 11 6 10 10 -3 15 -13 5 -16 15 -13 41 2 19 0 35 -5 35 -5 0 -7 6 -4 13 2 6 -4 29 -15 50 -10 20 -16 37 -13 37 3 0 -5 15 -19 33 -15 19 -26 39 -26 45 0 7 -3 11 -7 10 -5 -2 -9 0 -10 5 -5 15 -48 54 -55 50 -5 -2 -8 0 -8 5 0 13 -114 72 -139 72 -14 0 -20 4 -15 11 4 8 -1 9 -17 5 -20 -6 -21 -5 -6 4 21 14 23 73 2 90 -9 7 -33 16 -54 20 -35 6 -40 4 -56 -22z"/>
<path d="M4225 2379 c-4 -5 -10 -7 -14 -4 -12 7 -101 -25 -101 -36 0 -5 -5 -9 -11 -9 -5 0 -7 5 -4 10 10 15 -188 13 -204 -2 -8 -7 -11 -8 -8 -2 4 8 -13 11 -54 12 -34 1 -57 -3 -54 -8 3 -6 -1 -7 -9 -4 -25 10 -19 -20 8 -43 13 -12 27 -19 30 -16 3 4 6 -82 6 -190 0 -132 -3 -197 -11 -197 -5 0 -8 -4 -5 -9 3 -5 -1 -11 -9 -15 -8 -3 -15 -14 -15 -25 0 -19 6 -20 97 -18 81 2 98 5 101 18 2 10 -8 21 -25 28 -31 13 -32 15 -36 111 l-2 65 43 3 c23 2 41 0 40 -5 -1 -4 10 -21 25 -37 39 -42 53 -25 49 63 -3 53 -7 71 -18 71 -17 0 -55 -36 -46 -44 3 -3 -18 -6 -46 -6 l-51 0 1 101 c0 56 4 96 8 89 5 -8 10 -9 14 -1 9 13 99 7 104 -8 2 -6 7 -9 11 -6 5 2 15 -13 24 -35 23 -59 37 -50 37 24 0 70 14 87 46 57 17 -15 19 -33 19 -138 0 -67 3 -119 7 -117 5 3 8 -19 8 -48 0 -38 -3 -49 -10 -38 -6 9 -10 10 -10 3 0 -6 5 -15 10 -18 6 -3 10 -21 9 -38 0 -28 -2 -29 -10 -12 -8 17 -9 16 -6 -7 3 -16 -1 -28 -7 -28 -22 0 -37 -17 -30 -33 9 -25 162 -25 171 0 4 9 1 19 -5 21 -7 2 -12 16 -12 30 0 21 -2 24 -10 12 -7 -10 -10 61 -10 220 1 129 1 240 1 246 -1 16 -29 26 -36 13z"/>
<path d="M2125 2341 c-16 -6 -19 -16 -16 -59 1 -29 -2 -52 -7 -52 -6 0 -8 -9 -5 -20 9 -32 38 -24 52 15 11 31 51 68 51 48 0 -4 4 -3 8 4 4 7 24 9 55 6 53 -6 57 -17 29 -69 -9 -17 -26 -49 -38 -70 -12 -22 -48 -86 -80 -144 -79 -140 -85 -155 -71 -169 7 -7 67 -11 174 -11 185 0 174 -6 176 87 2 48 -1 58 -16 61 -10 2 -20 -4 -24 -15 -3 -10 -15 -31 -26 -46 -17 -25 -25 -28 -51 -23 -22 4 -27 3 -16 -4 11 -7 0 -10 -40 -10 -39 0 -51 3 -40 10 13 9 7 14 -12 11 -7 -1 48 108 81 159 9 14 24 41 33 60 10 19 22 42 27 50 54 85 90 164 81 175 -10 12 -56 13 -67 1 -3 -3 -14 -1 -24 5 -13 7 -19 6 -19 -1 0 -6 -5 -8 -11 -5 -22 14 -69 16 -69 3 0 -9 -3 -9 -10 2 -7 10 -12 12 -17 4 -9 -13 -43 -15 -43 -2 0 10 -38 9 -65 -1z"/>
<path d="M3193 2239 c-40 -41 -59 -67 -56 -79 3 -11 11 -16 21 -13 15 4 17 -6 16 -84 -2 -65 0 -78 6 -48 6 32 7 22 8 -50 1 -61 -1 -85 -8 -75 -7 10 -10 11 -10 2 0 -7 7 -15 15 -18 8 -4 15 -12 15 -19 0 -6 8 -19 18 -27 38 -35 165 13 149 56 -5 12 -14 15 -30 11 -25 -7 -56 15 -58 38 -2 28 3 202 6 206 2 2 19 6 37 10 24 5 34 13 36 29 3 20 -1 22 -37 22 -41 0 -41 0 -41 39 0 68 -20 68 -87 0z"/>
<path d="M2952 2213 c-34 -7 -90 -68 -97 -107 -9 -44 15 -89 55 -106 16 -7 30 -17 30 -22 0 -5 4 -7 9 -4 12 8 77 -38 74 -52 -2 -7 3 -12 10 -12 9 0 9 -2 -1 -9 -8 -4 -12 -12 -10 -16 5 -14 -45 -22 -79 -13 -17 4 -41 22 -53 38 -12 17 -28 30 -37 30 -13 0 -15 -9 -10 -47 7 -61 24 -73 109 -73 89 0 124 18 150 77 19 43 19 47 3 89 -9 24 -25 46 -36 49 -11 4 -17 10 -15 14 3 4 -5 8 -16 8 -12 1 -24 7 -28 13 -4 7 -10 11 -14 11 -12 -2 -64 29 -68 41 -7 18 2 39 13 32 5 -3 9 0 9 5 0 6 12 11 26 11 25 0 76 -41 85 -69 10 -30 29 2 29 49 0 36 -4 50 -17 55 -23 10 -91 14 -121 8z"/>
<path d="M4450 2207 c0 -5 -4 -5 -10 -2 -5 3 -10 3 -10 -2 0 -4 -13 -16 -29 -25 -32 -18 -76 -92 -67 -113 2 -7 2 -16 -2 -20 -10 -9 -9 -115 0 -115 5 0 8 -6 8 -13 0 -15 41 -56 83 -82 41 -26 140 -21 181 8 17 12 38 31 47 42 50 60 47 235 -5 278 -47 39 -95 58 -146 55 -28 -2 -50 -7 -50 -11z m84 -58 c33 -30 56 -88 56 -141 0 -18 -2 -20 -9 -9 -6 10 -8 1 -4 -26 3 -24 0 -49 -8 -64 -7 -13 -12 -27 -11 -31 3 -12 -23 -15 -54 -7 -23 7 -36 19 -49 48 -9 22 -14 44 -11 50 4 6 2 11 -3 11 -7 0 -11 22 -11 53 0 56 33 143 50 132 5 -3 10 -1 10 4 0 17 8 13 44 -20z"/>
<path d="M4807 2213 c-7 -6 -33 -10 -89 -12 -44 -1 -48 -15 -12 -43 14 -11 23 -23 20 -25 -3 -3 1 -18 9 -34 8 -15 17 -38 19 -51 3 -13 5 -23 6 -23 1 0 3 -7 5 -15 2 -8 10 -33 18 -55 8 -22 12 -46 10 -52 -3 -7 0 -13 6 -13 6 0 8 -6 5 -13 -14 -37 66 -71 95 -40 6 7 9 13 7 13 -3 0 3 21 13 48 10 26 19 50 20 55 4 31 15 56 22 51 6 -3 7 6 4 23 -5 23 -4 25 5 10 6 -10 12 -31 12 -47 1 -17 3 -28 6 -25 5 5 19 -39 34 -105 6 -26 26 -40 56 -40 30 0 31 1 47 63 2 4 3 8 5 10 1 1 3 11 5 22 1 11 10 39 18 63 9 23 16 45 16 47 -2 21 38 124 55 143 18 20 18 24 6 33 -8 5 -27 7 -42 5 -16 -3 -29 0 -32 7 -3 9 -5 9 -5 0 -1 -7 -12 -13 -26 -13 l-26 0 23 -24 c13 -13 26 -21 31 -19 4 2 7 -3 7 -12 0 -9 -4 -14 -8 -11 -5 3 -9 -7 -10 -22 0 -15 -8 -44 -16 -64 -9 -21 -16 -40 -16 -43 1 -37 -1 -39 -13 -17 -7 12 -17 19 -21 15 -5 -4 -5 3 -1 16 5 16 4 21 -4 17 -9 -6 -13 6 -10 30 0 4 -5 11 -13 15 -9 6 -10 9 -1 9 14 0 6 30 -11 43 -8 6 -7 10 2 14 6 2 12 17 12 32 0 25 -3 27 -37 27 -21 -1 -49 3 -62 8 -18 6 -22 5 -16 -5 6 -9 3 -11 -8 -6 -23 9 -23 -30 0 -55 14 -16 15 -24 4 -61 -7 -23 -17 -51 -22 -62 -7 -14 -8 -14 -4 -2 3 11 1 16 -6 11 -6 -3 -9 -15 -6 -25 3 -11 1 -16 -5 -13 -6 4 -15 0 -20 -7 -6 -10 -7 -7 -3 9 4 13 1 29 -5 37 -6 8 -9 18 -6 24 3 5 1 11 -5 13 -6 2 -12 15 -12 30 -1 14 -5 24 -9 21 -5 -2 -8 1 -8 6 0 6 3 11 8 11 4 0 13 12 20 27 13 29 16 51 6 40 -4 -3 -14 -2 -24 3 -10 5 -20 7 -23 3z"/>
<path d="M2588 2190 c-21 -11 -38 -24 -38 -28 0 -5 -10 -19 -22 -32 -13 -14 -22 -26 -20 -27 6 -7 1 -44 -5 -40 -9 6 -11 -105 -3 -113 3 -3 15 -25 28 -51 30 -59 65 -79 139 -79 84 0 154 49 137 94 -8 20 -7 20 -46 -4 -74 -45 -154 -12 -165 67 l-6 42 109 3 109 3 3 37 c5 54 -37 126 -78 137 -52 13 -108 10 -142 -9z"/>
<path d="M3374 2199 c-2 -4 5 -18 16 -31 11 -14 16 -28 13 -32 -3 -3 -1 -6 5 -6 7 0 11 -3 11 -7 -1 -5 4 -24 12 -43 7 -19 12 -38 11 -42 -1 -5 3 -8 10 -8 6 0 9 -3 5 -6 -3 -4 1 -20 9 -36 9 -17 13 -32 10 -35 -3 -3 2 -12 10 -20 8 -8 12 -19 9 -24 -4 -5 -1 -9 4 -9 6 0 10 -3 9 -7 -1 -5 5 -22 14 -39 13 -24 14 -34 5 -44 -9 -10 -9 -11 1 -5 20 11 0 -25 -27 -49 -16 -14 -28 -17 -58 -11 -21 4 -41 12 -45 18 -4 7 -8 -12 -8 -40 0 -57 -5 -53 69 -56 40 -1 83 38 105 95 9 26 22 50 26 53 5 3 6 13 3 22 -4 9 -2 14 3 10 5 -3 10 2 11 11 1 21 66 201 94 260 11 24 26 45 34 48 8 4 15 12 15 19 0 9 -21 14 -70 17 -59 2 -70 0 -70 -13 0 -9 11 -21 25 -27 14 -6 25 -17 25 -24 0 -9 -3 -8 -10 2 -8 12 -10 10 -8 -10 4 -30 -31 -140 -44 -140 -5 0 -6 -5 -2 -11 4 -7 -1 -7 -16 1 -18 10 -20 14 -9 21 11 7 9 9 -6 10 -11 0 -14 3 -8 6 10 3 9 8 -3 20 -8 9 -13 22 -10 30 3 8 1 11 -4 8 -10 -6 -11 -4 -15 58 -2 26 2 37 11 37 8 0 14 6 14 14 0 11 -20 15 -86 18 -47 2 -88 0 -90 -3z"/>
</g>
</svg>
